<svg width="135" height="41" viewBox="0 0 135 41" fill="none" xmlns="http://www.w3.org/2000/svg">
<path d="M130 0.203613H5C2.23858 0.203613 0 2.44219 0 5.20361V35.2036C0 37.965 2.23858 40.2036 5 40.2036H130C132.761 40.2036 135 37.965 135 35.2036V5.20361C135 2.44219 132.761 0.203613 130 0.203613Z" fill="black"/>
<path d="M130 1.00361C131.114 1.00361 132.182 1.44611 132.97 2.23376C133.758 3.02142 134.2 4.0897 134.2 5.20361V35.2036C134.2 36.3175 133.758 37.3858 132.97 38.1735C132.182 38.9611 131.114 39.4036 130 39.4036H5C3.88609 39.4036 2.8178 38.9611 2.03015 38.1735C1.2425 37.3858 0.8 36.3175 0.8 35.2036V5.20361C0.8 4.0897 1.2425 3.02142 2.03015 2.23376C2.8178 1.44611 3.88609 1.00361 5 1.00361H130ZM130 0.203613H5C3.67392 0.203613 2.40215 0.730397 1.46447 1.66808C0.526784 2.60576 0 3.87753 0 5.20361V35.2036C0 36.5297 0.526784 37.8015 1.46447 38.7391C2.40215 39.6768 3.67392 40.2036 5 40.2036H130C131.326 40.2036 132.598 39.6768 133.536 38.7391C134.473 37.8015 135 36.5297 135 35.2036V5.20361C135 3.87753 134.473 2.60576 133.536 1.66808C132.598 0.730397 131.326 0.203613 130 0.203613Z" fill="#A6A6A6"/>
<path d="M44.3757 10.6894H46.4666V13.5905C46.1529 13.6969 45.8297 13.776 45.4969 13.8278C45.1668 13.8797 44.7972 13.9056 44.388 13.9056C43.7661 13.9056 43.2409 13.7814 42.8127 13.5332C42.3871 13.285 42.0639 12.9317 41.8429 12.4734C41.622 12.0124 41.5115 11.4655 41.5115 10.8326C41.5115 10.2134 41.6329 9.67328 41.8756 9.21228C42.1212 8.75127 42.4744 8.39392 42.9354 8.14022C43.3992 7.88381 43.9556 7.7556 44.6049 7.7556C44.9377 7.7556 45.2527 7.78697 45.5501 7.84971C45.8501 7.90972 46.1284 7.99565 46.3848 8.10749L46.1188 8.71308C45.8979 8.6176 45.6537 8.53576 45.3864 8.46757C45.1218 8.39937 44.8477 8.36527 44.564 8.36527C44.0757 8.36527 43.6569 8.4662 43.3078 8.66807C42.9613 8.86993 42.6954 9.15499 42.5099 9.52325C42.3271 9.89151 42.2357 10.328 42.2357 10.8326C42.2357 11.3318 42.3162 11.7669 42.4771 12.1379C42.6381 12.5062 42.889 12.7926 43.23 12.9972C43.571 13.2018 44.0102 13.3041 44.5476 13.3041C44.8176 13.3041 45.0495 13.2891 45.2432 13.2591C45.4369 13.2263 45.6128 13.1881 45.771 13.1445V11.3114H44.3757V10.6894ZM51.2459 13.8237H47.9151V7.84152H51.2459V8.45529H48.6107V10.3907H51.0945V10.9963H48.6107V13.21H51.2459V13.8237ZM54.4088 13.8237H53.7091V8.45529H51.8269V7.84152H56.2829V8.45529H54.4088V13.8237ZM59.364 13.8237V7.84152H60.0596V13.8237H59.364ZM63.5417 13.8237H62.842V8.45529H60.9598V7.84152H65.4158V8.45529H63.5417V13.8237ZM73.6853 10.8244C73.6853 11.2855 73.6266 11.7055 73.5093 12.0847C73.392 12.4612 73.2174 12.7858 72.9856 13.0586C72.7564 13.3286 72.4714 13.5373 72.1304 13.6846C71.7894 13.8319 71.3939 13.9056 70.9438 13.9056C70.48 13.9056 70.0749 13.8319 69.7285 13.6846C69.3848 13.5373 69.0984 13.3273 68.8692 13.0545C68.6428 12.7817 68.4723 12.4557 68.3578 12.0765C68.2459 11.6974 68.19 11.2773 68.19 10.8163C68.19 10.2052 68.2909 9.66919 68.4928 9.20818C68.6946 8.74717 69.0002 8.38846 69.4093 8.13204C69.8213 7.87562 70.3368 7.74741 70.956 7.74741C71.548 7.74741 72.0458 7.87426 72.4496 8.12795C72.856 8.38164 73.1629 8.73899 73.3702 9.2C73.5803 9.65828 73.6853 10.1998 73.6853 10.8244ZM68.9224 10.8244C68.9224 11.3318 68.9947 11.771 69.1393 12.142C69.2839 12.513 69.5048 12.7994 69.8022 13.0013C70.1022 13.2031 70.4828 13.3041 70.9438 13.3041C71.4075 13.3041 71.7867 13.2031 72.0813 13.0013C72.3786 12.7994 72.5982 12.513 72.7401 12.142C72.8819 11.771 72.9528 11.3318 72.9528 10.8244C72.9528 10.0525 72.7905 9.4496 72.4659 9.01587C72.144 8.57941 71.6407 8.36118 70.956 8.36118C70.4923 8.36118 70.1104 8.46075 69.8103 8.65988C69.5103 8.85902 69.2866 9.14271 69.1393 9.51098C68.9947 9.87651 68.9224 10.3143 68.9224 10.8244ZM79.6961 13.8237H78.8941L75.633 8.799H75.6002C75.6084 8.93267 75.618 9.08543 75.6289 9.25729C75.6398 9.42641 75.648 9.60782 75.6534 9.80149C75.6616 9.99244 75.6657 10.1875 75.6657 10.3866V13.8237H75.0192V7.84152H75.8171L79.066 12.8499H79.0946C79.0892 12.7544 79.0824 12.6194 79.0742 12.4448C79.066 12.2675 79.0578 12.0779 79.0496 11.876C79.0442 11.6714 79.0414 11.4819 79.0414 11.3073V7.84152H79.6961V13.8237Z" fill="white"/>
<path d="M44.3757 10.6894V10.5894H44.2757V10.6894H44.3757ZM46.4666 10.6894H46.5666V10.5894H46.4666V10.6894ZM46.4666 13.5905L46.4988 13.6852L46.5666 13.6622V13.5905H46.4666ZM45.4969 13.8278L45.4815 13.729L45.4814 13.729L45.4969 13.8278ZM42.8127 13.5332L42.7623 13.6196L42.7625 13.6197L42.8127 13.5332ZM41.8429 12.4734L41.7527 12.5167L41.7528 12.5169L41.8429 12.4734ZM41.8756 9.21228L41.7874 9.16527L41.7872 9.16568L41.8756 9.21228ZM42.9354 8.14022L42.9836 8.22784L42.9838 8.22774L42.9354 8.14022ZM45.5501 7.84971L45.5294 7.94756L45.5305 7.94777L45.5501 7.84971ZM46.3848 8.10749L46.4764 8.1477L46.5167 8.05591L46.4248 8.01583L46.3848 8.10749ZM46.1188 8.71308L46.0792 8.80487L46.1704 8.8443L46.2104 8.75329L46.1188 8.71308ZM45.3864 8.46757L45.3614 8.5644L45.3617 8.56447L45.3864 8.46757ZM43.3078 8.66807L43.2577 8.58149L43.2574 8.58166L43.3078 8.66807ZM42.5099 9.52325L42.4206 9.47827L42.4203 9.4788L42.5099 9.52325ZM42.4771 12.1379L42.3854 12.1777L42.3855 12.178L42.4771 12.1379ZM43.23 12.9972L43.1786 13.0829L43.23 12.9972ZM45.2432 13.2591L45.2585 13.3579L45.2599 13.3577L45.2432 13.2591ZM45.771 13.1445L45.7976 13.2409L45.871 13.2206V13.1445H45.771ZM45.771 11.3114H45.871V11.2114H45.771V11.3114ZM44.3757 11.3114H44.2757V11.4114H44.3757V11.3114ZM44.3757 10.7894H46.4666V10.5894H44.3757V10.7894ZM46.3666 10.6894V13.5905H46.5666V10.6894H46.3666ZM46.4345 13.4958C46.1264 13.6003 45.8087 13.6781 45.4815 13.729L45.5123 13.9266C45.8507 13.8739 46.1795 13.7935 46.4988 13.6852L46.4345 13.4958ZM45.4814 13.729C45.1574 13.7799 44.7931 13.8056 44.388 13.8056V14.0056C44.8013 14.0056 45.1762 13.9794 45.5124 13.9266L45.4814 13.729ZM44.388 13.8056C43.7792 13.8056 43.2724 13.6841 42.8628 13.4467L42.7625 13.6197C43.2095 13.8788 43.7529 14.0056 44.388 14.0056V13.8056ZM42.8631 13.4468C42.4553 13.209 42.1456 12.871 41.933 12.43L41.7528 12.5169C41.9821 12.9925 42.3189 13.361 42.7623 13.6196L42.8631 13.4468ZM41.9331 12.4302C41.7199 11.9855 41.6115 11.454 41.6115 10.8326H41.4115C41.4115 11.477 41.524 12.0393 41.7527 12.5167L41.9331 12.4302ZM41.6115 10.8326C41.6115 10.2266 41.7302 9.70304 41.9641 9.25887L41.7872 9.16568C41.5355 9.64353 41.4115 10.2002 41.4115 10.8326H41.6115ZM41.9639 9.25928C42.2002 8.81554 42.5395 8.47224 42.9836 8.22784L42.8872 8.05261C42.4093 8.31559 42.0421 8.68699 41.7874 9.16527L41.9639 9.25928ZM42.9838 8.22774C43.4297 7.98116 43.9688 7.8556 44.6049 7.8556V7.6556C43.9425 7.6556 43.3686 7.78645 42.887 8.05271L42.9838 8.22774ZM44.6049 7.8556C44.9314 7.8556 45.2395 7.88637 45.5294 7.94755L45.5707 7.75186C45.266 7.68756 44.944 7.6556 44.6049 7.6556V7.8556ZM45.5305 7.94777C45.8242 8.00651 46.0955 8.09041 46.3448 8.19915L46.4248 8.01583C46.1612 7.90088 45.8761 7.81293 45.5697 7.75165L45.5305 7.94777ZM46.2932 8.06728L46.0273 8.67286L46.2104 8.75329L46.4764 8.1477L46.2932 8.06728ZM46.1585 8.62128C45.9321 8.52344 45.6828 8.43999 45.4111 8.37067L45.3617 8.56447C45.6246 8.63154 45.8637 8.71177 46.0792 8.80487L46.1585 8.62128ZM45.4114 8.37073C45.1383 8.30036 44.8557 8.26527 44.564 8.26527V8.46527C44.8396 8.46527 45.1053 8.49839 45.3614 8.5644L45.4114 8.37073ZM44.564 8.26527C44.0618 8.26527 43.625 8.36915 43.2577 8.58149L43.3578 8.75464C43.6889 8.56326 44.0895 8.46527 44.564 8.46527V8.26527ZM43.2574 8.58166C42.8938 8.79356 42.6145 9.09324 42.4206 9.47827L42.5992 9.56824C42.7762 9.21674 43.0289 8.9463 43.3581 8.75447L43.2574 8.58166ZM42.4203 9.4788C42.2293 9.86366 42.1357 10.316 42.1357 10.8326H42.3357C42.3357 10.3399 42.4249 9.91937 42.5994 9.56771L42.4203 9.4788ZM42.1357 10.8326C42.1357 11.3424 42.2179 11.7916 42.3854 12.1777L42.5689 12.0981C42.4145 11.7423 42.3357 11.3213 42.3357 10.8326H42.1357ZM42.3855 12.178C42.5547 12.565 42.8196 12.8675 43.1786 13.0829L43.2815 12.9114C42.9585 12.7177 42.7215 12.4473 42.5688 12.0979L42.3855 12.178ZM43.1786 13.0829C43.5396 13.2996 43.9982 13.4041 44.5476 13.4041V13.2041C44.0222 13.2041 43.6024 13.104 43.2815 12.9114L43.1786 13.0829ZM44.5476 13.4041C44.821 13.4041 45.0583 13.3889 45.2585 13.3579L45.2279 13.1602C45.0408 13.1892 44.8143 13.2041 44.5476 13.2041V13.4041ZM45.2599 13.3577C45.4563 13.3245 45.6356 13.2856 45.7976 13.2409L45.7444 13.0481C45.5901 13.0907 45.4175 13.1282 45.2265 13.1605L45.2599 13.3577ZM45.871 13.1445V11.3114H45.671V13.1445H45.871ZM45.771 11.2114H44.3757V11.4114H45.771V11.2114ZM44.4757 11.3114V10.6894H44.2757V11.3114H44.4757ZM51.2459 13.8237V13.9237H51.3459V13.8237H51.2459ZM47.9151 13.8237H47.8151V13.9237H47.9151V13.8237ZM47.9151 7.84152V7.74152H47.8151V7.84152H47.9151ZM51.2459 7.84152H51.3459V7.74152H51.2459V7.84152ZM51.2459 8.45529V8.55529H51.3459V8.45529H51.2459ZM48.6107 8.45529V8.35529H48.5107V8.45529H48.6107ZM48.6107 10.3907H48.5107V10.4907H48.6107V10.3907ZM51.0945 10.3907H51.1945V10.2907H51.0945V10.3907ZM51.0945 10.9963V11.0963H51.1945V10.9963H51.0945ZM48.6107 10.9963V10.8963H48.5107V10.9963H48.6107ZM48.6107 13.21H48.5107V13.31H48.6107V13.21ZM51.2459 13.21H51.3459V13.11H51.2459V13.21ZM51.2459 13.7237H47.9151V13.9237H51.2459V13.7237ZM48.0151 13.8237V7.84152H47.8151V13.8237H48.0151ZM47.9151 7.94152H51.2459V7.74152H47.9151V7.94152ZM51.1459 7.84152V8.45529H51.3459V7.84152H51.1459ZM51.2459 8.35529H48.6107V8.55529H51.2459V8.35529ZM48.5107 8.45529V10.3907H48.7107V8.45529H48.5107ZM48.6107 10.4907H51.0945V10.2907H48.6107V10.4907ZM50.9945 10.3907V10.9963H51.1945V10.3907H50.9945ZM51.0945 10.8963H48.6107V11.0963H51.0945V10.8963ZM48.5107 10.9963V13.21H48.7107V10.9963H48.5107ZM48.6107 13.31H51.2459V13.11H48.6107V13.31ZM51.1459 13.21V13.8237H51.3459V13.21H51.1459ZM54.4088 13.8237V13.9237H54.5088V13.8237H54.4088ZM53.7091 13.8237H53.6091V13.9237H53.7091V13.8237ZM53.7091 8.45529H53.8091V8.35529H53.7091V8.45529ZM51.8269 8.45529H51.7269V8.55529H51.8269V8.45529ZM51.8269 7.84152V7.74152H51.7269V7.84152H51.8269ZM56.2829 7.84152H56.3829V7.74152H56.2829V7.84152ZM56.2829 8.45529V8.55529H56.3829V8.45529H56.2829ZM54.4088 8.45529V8.35529H54.3088V8.45529H54.4088ZM54.4088 13.7237H53.7091V13.9237H54.4088V13.7237ZM53.8091 13.8237V8.45529H53.6091V13.8237H53.8091ZM53.7091 8.35529H51.8269V8.55529H53.7091V8.35529ZM51.9269 8.45529V7.84152H51.7269V8.45529H51.9269ZM51.8269 7.94152H56.2829V7.74152H51.8269V7.94152ZM56.1829 7.84152V8.45529H56.3829V7.84152H56.1829ZM56.2829 8.35529H54.4088V8.55529H56.2829V8.35529ZM54.3088 8.45529V13.8237H54.5088V8.45529H54.3088ZM59.364 13.8237H59.264V13.9237H59.364V13.8237ZM59.364 7.84152V7.74152H59.264V7.84152H59.364ZM60.0596 7.84152H60.1596V7.74152H60.0596V7.84152ZM60.0596 13.8237V13.9237H60.1596V13.8237H60.0596ZM59.464 13.8237V7.84152H59.264V13.8237H59.464ZM59.364 7.94152H60.0596V7.74152H59.364V7.94152ZM59.9596 7.84152V13.8237H60.1596V7.84152H59.9596ZM60.0596 13.7237H59.364V13.9237H60.0596V13.7237ZM63.5417 13.8237V13.9237H63.6417V13.8237H63.5417ZM62.842 13.8237H62.742V13.9237H62.842V13.8237ZM62.842 8.45529H62.942V8.35529H62.842V8.45529ZM60.9598 8.45529H60.8598V8.55529H60.9598V8.45529ZM60.9598 7.84152V7.74152H60.8598V7.84152H60.9598ZM65.4158 7.84152H65.5158V7.74152H65.4158V7.84152ZM65.4158 8.45529V8.55529H65.5158V8.45529H65.4158ZM63.5417 8.45529V8.35529H63.4417V8.45529H63.5417ZM63.5417 13.7237H62.842V13.9237H63.5417V13.7237ZM62.942 13.8237V8.45529H62.742V13.8237H62.942ZM62.842 8.35529H60.9598V8.55529H62.842V8.35529ZM61.0598 8.45529V7.84152H60.8598V8.45529H61.0598ZM60.9598 7.94152H65.4158V7.74152H60.9598V7.94152ZM65.3158 7.84152V8.45529H65.5158V7.84152H65.3158ZM65.4158 8.35529H63.5417V8.55529H65.4158V8.35529ZM63.4417 8.45529V13.8237H63.6417V8.45529H63.4417ZM73.5093 12.0847L73.6048 12.1145L73.6049 12.1143L73.5093 12.0847ZM72.9856 13.0586L72.9094 12.9938L72.9093 12.9939L72.9856 13.0586ZM72.1304 13.6846L72.17 13.7764L72.1304 13.6846ZM69.7285 13.6846L69.6891 13.7765L69.6894 13.7766L69.7285 13.6846ZM68.8692 13.0545L68.7923 13.1183L68.7927 13.1188L68.8692 13.0545ZM68.3578 12.0765L68.2618 12.1048L68.262 12.1055L68.3578 12.0765ZM69.4093 8.13204L69.3565 8.04715L69.3562 8.0473L69.4093 8.13204ZM72.4496 8.12795L72.3963 8.21262L72.3966 8.21278L72.4496 8.12795ZM73.3702 9.2L73.279 9.24101L73.2793 9.24167L73.3702 9.2ZM69.8022 13.0013L69.746 13.084L69.7463 13.0843L69.8022 13.0013ZM72.0813 13.0013L72.0251 12.9185L72.0248 12.9188L72.0813 13.0013ZM72.4659 9.01587L72.3854 9.07522L72.3859 9.07579L72.4659 9.01587ZM69.8103 8.65988L69.755 8.57656L69.8103 8.65988ZM69.1393 9.51098L69.0464 9.47384L69.0463 9.4742L69.1393 9.51098ZM73.5853 10.8244C73.5853 11.277 73.5277 11.687 73.4138 12.0552L73.6049 12.1143C73.7256 11.7241 73.7853 11.2939 73.7853 10.8244H73.5853ZM73.4139 12.055C73.3002 12.4199 73.1317 12.7323 72.9094 12.9938L73.0618 13.1233C73.3032 12.8393 73.4839 12.5025 73.6048 12.1145L73.4139 12.055ZM72.9093 12.9939C72.6906 13.2516 72.4183 13.4513 72.0907 13.5928L72.17 13.7764C72.5244 13.6233 72.8222 13.4056 73.0618 13.1233L72.9093 12.9939ZM72.0907 13.5928C71.7646 13.7337 71.3831 13.8056 70.9438 13.8056V14.0056C71.4047 14.0056 71.8142 13.9301 72.17 13.7764L72.0907 13.5928ZM70.9438 13.8056C70.4904 13.8056 70.0992 13.7336 69.7676 13.5926L69.6894 13.7766C70.0507 13.9303 70.4696 14.0056 70.9438 14.0056V13.8056ZM69.7679 13.5927C69.4378 13.4512 69.1644 13.2504 68.9458 12.9902L68.7927 13.1188C69.0324 13.4042 69.3318 13.6234 69.6891 13.7765L69.7679 13.5927ZM68.9462 12.9906C68.7292 12.7292 68.5646 12.4155 68.4535 12.0476L68.262 12.1055C68.38 12.4959 68.5564 12.8341 68.7923 13.1183L68.9462 12.9906ZM68.4537 12.0482C68.3449 11.6796 68.29 11.2692 68.29 10.8163H68.09C68.09 11.2853 68.1469 11.7151 68.2618 12.1048L68.4537 12.0482ZM68.29 10.8163C68.29 10.2161 68.3891 9.69425 68.5844 9.24829L68.4012 9.16807C68.1927 9.64413 68.09 10.1943 68.09 10.8163H68.29ZM68.5844 9.24829C68.7786 8.80487 69.071 8.46206 69.4624 8.21678L69.3562 8.0473C68.9293 8.31486 68.6107 8.68948 68.4012 9.16807L68.5844 9.24829ZM69.4622 8.21694C69.8544 7.97278 70.3504 7.84741 70.956 7.84741V7.64741C70.3232 7.64741 69.7881 7.77847 69.3565 8.04715L69.4622 8.21694ZM70.956 7.84741C71.5337 7.84741 72.012 7.97111 72.3963 8.21262L72.5028 8.04328C72.0796 7.7774 71.5623 7.64741 70.956 7.64741V7.84741ZM72.3966 8.21278C72.7853 8.45539 73.0793 8.79703 73.279 9.24101L73.4614 9.15899C73.2464 8.68095 72.9267 8.30789 72.5025 8.04312L72.3966 8.21278ZM73.2793 9.24167C73.4821 9.68414 73.5853 10.2108 73.5853 10.8244H73.7853C73.7853 10.1887 73.6784 9.63243 73.4611 9.15833L73.2793 9.24167ZM68.8224 10.8244C68.8224 11.341 68.896 11.7931 69.0461 12.1783L69.2325 12.1057C69.0934 11.749 69.0224 11.3227 69.0224 10.8244H68.8224ZM69.0461 12.1783C69.1972 12.566 69.4301 12.8696 69.746 13.084L69.8583 12.9185C69.5795 12.7293 69.3705 12.4599 69.2325 12.1057L69.0461 12.1783ZM69.7463 13.0843C70.0669 13.2999 70.4683 13.4041 70.9438 13.4041V13.2041C70.4972 13.2041 70.1375 13.1064 69.858 12.9183L69.7463 13.0843ZM70.9438 13.4041C71.4217 13.4041 71.8222 13.3 72.1378 13.0838L72.0248 12.9188C71.7511 13.1063 71.3933 13.2041 70.9438 13.2041V13.4041ZM72.1375 13.084C72.4535 12.8695 72.6851 12.5657 72.8335 12.1777L72.6467 12.1063C72.5113 12.4603 72.3038 12.7294 72.0251 12.9185L72.1375 13.084ZM72.8335 12.1777C72.9807 11.7926 73.0528 11.3408 73.0528 10.8244H72.8528C72.8528 11.3229 72.7831 11.7494 72.6467 12.1063L72.8335 12.1777ZM73.0528 10.8244C73.0528 10.0398 72.888 9.41295 72.546 8.95595L72.3859 9.07579C72.6931 9.48625 72.8528 10.0652 72.8528 10.8244H73.0528ZM72.5464 8.95651C72.2008 8.48787 71.6633 8.26118 70.956 8.26118V8.46118C71.6182 8.46118 72.0873 8.67095 72.3854 9.07522L72.5464 8.95651ZM70.956 8.26118C70.4782 8.26118 70.0756 8.36381 69.755 8.57656L69.8656 8.7432C70.1452 8.55768 70.5064 8.46118 70.956 8.46118V8.26118ZM69.755 8.57656C69.4364 8.78805 69.2005 9.08872 69.0464 9.47384L69.2321 9.54812C69.3727 9.19671 69.5842 8.92998 69.8656 8.7432L69.755 8.57656ZM69.0463 9.4742C68.8959 9.85435 68.8224 10.3053 68.8224 10.8244H69.0224C69.0224 10.3234 69.0935 9.89867 69.2323 9.54776L69.0463 9.4742ZM79.6961 13.8237V13.9237H79.7961V13.8237H79.6961ZM78.8941 13.8237L78.8102 13.8782L78.8398 13.9237H78.8941V13.8237ZM75.633 8.799L75.7169 8.74456L75.6873 8.699H75.633V8.799ZM75.6002 8.799V8.699H75.4939L75.5004 8.80511L75.6002 8.799ZM75.6289 9.25729L75.5291 9.26362L75.5291 9.26372L75.6289 9.25729ZM75.6534 9.80149L75.5535 9.80431L75.5535 9.80578L75.6534 9.80149ZM75.6657 13.8237V13.9237H75.7657V13.8237H75.6657ZM75.0192 13.8237H74.9192V13.9237H75.0192V13.8237ZM75.0192 7.84152V7.74152H74.9192V7.84152H75.0192ZM75.8171 7.84152L75.901 7.7871L75.8714 7.74152H75.8171V7.84152ZM79.066 12.8499L78.9821 12.9043L79.0117 12.9499H79.066V12.8499ZM79.0946 12.8499V12.9499H79.2005L79.1945 12.8442L79.0946 12.8499ZM79.0742 12.4448L78.9743 12.4494L78.9743 12.4495L79.0742 12.4448ZM79.0496 11.876L78.9496 11.8787L78.9497 11.8801L79.0496 11.876ZM79.0414 7.84152V7.74152H78.9414V7.84152H79.0414ZM79.6961 7.84152H79.7961V7.74152H79.6961V7.84152ZM79.6961 13.7237H78.8941V13.9237H79.6961V13.7237ZM78.978 13.7693L75.7169 8.74456L75.5491 8.85345L78.8102 13.8782L78.978 13.7693ZM75.633 8.699H75.6002V8.899H75.633V8.699ZM75.5004 8.80511C75.5086 8.93887 75.5182 9.09171 75.5291 9.26362L75.7287 9.25095C75.7178 9.07915 75.7082 8.92647 75.7 8.79289L75.5004 8.80511ZM75.5291 9.26372C75.5399 9.43149 75.548 9.61167 75.5535 9.80431L75.7534 9.79868C75.7479 9.60396 75.7397 9.42134 75.7287 9.25085L75.5291 9.26372ZM75.5535 9.80578C75.5616 9.99524 75.5657 10.1889 75.5657 10.3866H75.7657C75.7657 10.1861 75.7616 9.98965 75.7533 9.79721L75.5535 9.80578ZM75.5657 10.3866V13.8237H75.7657V10.3866H75.5657ZM75.6657 13.7237H75.0192V13.9237H75.6657V13.7237ZM75.1192 13.8237V7.84152H74.9192V13.8237H75.1192ZM75.0192 7.94152H75.8171V7.74152H75.0192V7.94152ZM75.7332 7.89595L78.9821 12.9043L79.1499 12.7955L75.901 7.7871L75.7332 7.89595ZM79.066 12.9499H79.0946V12.7499H79.066V12.9499ZM79.1945 12.8442C79.189 12.7492 79.1822 12.6146 79.1741 12.4401L78.9743 12.4495C78.9825 12.6242 78.9893 12.7596 78.9948 12.8556L79.1945 12.8442ZM79.1741 12.4402C79.1659 12.2631 79.1577 12.0737 79.1495 11.872L78.9497 11.8801C78.9579 12.0821 78.9661 12.2719 78.9743 12.4494L79.1741 12.4402ZM79.1496 11.8734C79.1441 11.6695 79.1414 11.4808 79.1414 11.3073H78.9414C78.9414 11.4829 78.9442 11.6734 78.9497 11.8787L79.1496 11.8734ZM79.1414 11.3073V7.84152H78.9414V11.3073H79.1414ZM79.0414 7.94152H79.6961V7.74152H79.0414V7.94152ZM79.5961 7.84152V13.8237H79.7961V7.84152H79.5961Z" fill="white"/>
<path d="M68.14 21.9535C67.2974 21.9555 66.4744 22.2073 65.7749 22.677C65.0755 23.1468 64.531 23.8134 64.2104 24.5925C63.8898 25.3717 63.8075 26.2284 63.9738 27.0544C64.1401 27.8804 64.5476 28.6385 65.1448 29.2329C65.742 29.8272 66.502 30.2312 67.3287 30.3936C68.1555 30.556 69.0118 30.4697 69.7895 30.1454C70.5671 29.8212 71.2311 29.2736 71.6976 28.5719C72.164 27.8703 72.412 27.0461 72.41 26.2035C72.4181 25.6415 72.3131 25.0835 72.1012 24.5629C71.8892 24.0422 71.5746 23.5696 71.1762 23.173C70.7778 22.7765 70.3037 22.4642 69.7821 22.2547C69.2604 22.0452 68.702 21.9427 68.14 21.9535ZM68.14 28.7835C67.6236 28.8197 67.1082 28.6996 66.6609 28.4389C66.2137 28.1783 65.8552 27.7891 65.632 27.322C65.4088 26.8549 65.3314 26.3314 65.4097 25.8197C65.4879 25.308 65.7184 24.8316 66.0709 24.4526C66.4235 24.0735 66.882 23.8093 67.3867 23.6943C67.8915 23.5793 68.4192 23.6188 68.9012 23.8076C69.3832 23.9965 69.7972 24.326 70.0895 24.7532C70.3818 25.1805 70.5387 25.6859 70.54 26.2035C70.5561 26.5316 70.5063 26.8595 70.3937 27.168C70.2811 27.4764 70.1078 27.7593 69.8841 27.9997C69.6604 28.2402 69.3909 28.4334 69.0913 28.568C68.7918 28.7026 68.4683 28.7759 68.14 28.7835ZM58.82 21.9535C57.9774 21.9555 57.1544 22.2073 56.4549 22.677C55.7555 23.1468 55.211 23.8134 54.8904 24.5925C54.5698 25.3717 54.4875 26.2284 54.6538 27.0544C54.8201 27.8804 55.2276 28.6385 55.8248 29.2329C56.422 29.8272 57.182 30.2312 58.0087 30.3936C58.8355 30.556 59.6918 30.4697 60.4695 30.1454C61.2471 29.8212 61.9111 29.2736 62.3776 28.5719C62.844 27.8703 63.0919 27.0461 63.09 26.2035C63.0981 25.6415 62.9931 25.0835 62.7812 24.5629C62.5692 24.0422 62.2546 23.5696 61.8562 23.173C61.4578 22.7765 60.9837 22.4642 60.4621 22.2547C59.9404 22.0452 59.382 21.9427 58.82 21.9535ZM58.82 28.7835C58.3036 28.8197 57.7882 28.6996 57.3409 28.4389C56.8937 28.1783 56.5352 27.7891 56.312 27.322C56.0888 26.8549 56.0114 26.3314 56.0897 25.8197C56.1679 25.308 56.3984 24.8316 56.7509 24.4526C57.1035 24.0735 57.562 23.8093 58.0667 23.6943C58.5715 23.5793 59.0992 23.6188 59.5812 23.8076C60.0632 23.9965 60.4772 24.326 60.7695 24.7532C61.0618 25.1805 61.2187 25.6859 61.22 26.2035C61.2361 26.5316 61.1863 26.8595 61.0737 27.168C60.9611 27.4764 60.7878 27.7593 60.5641 27.9997C60.3404 28.2402 60.0709 28.4334 59.7713 28.568C59.4718 28.7026 59.1483 28.7759 58.82 28.7835ZM47.74 23.2635V25.0635H52.06C51.9922 25.9113 51.6398 26.7113 51.06 27.3335C50.6266 27.775 50.1054 28.1207 49.5301 28.3481C48.9547 28.5754 48.3381 28.6795 47.72 28.6535C46.4469 28.6535 45.226 28.1478 44.3259 27.2476C43.4257 26.3475 42.92 25.1266 42.92 23.8535C42.92 22.5805 43.4257 21.3596 44.3259 20.4594C45.226 19.5592 46.4469 19.0535 47.72 19.0535C48.9404 19.0354 50.1189 19.4989 51 20.3435L52.27 19.0735C51.674 18.484 50.9663 18.0194 50.1884 17.7069C49.4106 17.3944 48.5782 17.2403 47.74 17.2535C46.851 17.2189 45.9641 17.3642 45.1326 17.6805C44.3011 17.9969 43.5419 18.4778 42.9007 19.0945C42.2595 19.7113 41.7494 20.4511 41.401 21.2697C41.0525 22.0883 40.8729 22.9689 40.8729 23.8585C40.8729 24.7482 41.0525 25.6287 41.401 26.4473C41.7494 27.2659 42.2595 28.0058 42.9007 28.6225C43.5419 29.2393 44.3011 29.7202 45.1326 30.0366C45.9641 30.3529 46.851 30.4981 47.74 30.4635C48.5954 30.4977 49.4484 30.3505 50.2429 30.0317C51.0374 29.7129 51.7555 29.2296 52.35 28.6135C53.4001 27.4599 53.9596 25.9427 53.91 24.3835C53.9136 24.0083 53.8834 23.6334 53.82 23.2635H47.74ZM93.05 24.6635C92.7892 23.8963 92.3015 23.2263 91.6515 22.7424C91.0015 22.2584 90.2198 21.9834 89.41 21.9535C88.863 21.9525 88.3216 22.0636 87.8192 22.2801C87.3169 22.4965 86.8643 22.8137 86.4894 23.2121C86.1145 23.6104 85.8252 24.0814 85.6396 24.5959C85.4539 25.1105 85.3758 25.6576 85.41 26.2035C85.4014 27.1164 85.6884 28.0075 86.2281 28.7438C86.7678 29.4801 87.5312 30.022 88.4042 30.2887C89.2773 30.5553 90.2132 30.5324 91.0722 30.2232C91.9311 29.9141 92.667 29.3354 93.17 28.5735L91.72 27.5735C91.5038 27.9338 91.1972 28.2313 90.8306 28.4366C90.464 28.6418 90.0501 28.7476 89.63 28.7435C89.1965 28.7614 88.7678 28.6478 88.4002 28.4176C88.0325 28.1873 87.7431 27.8513 87.57 27.4535L93.26 25.1035L93.05 24.6635ZM87.25 26.0835C87.2297 25.7729 87.2716 25.4614 87.3733 25.1672C87.4749 24.8729 87.6342 24.6019 87.8419 24.3701C88.0495 24.1382 88.3014 23.9501 88.5827 23.8167C88.8639 23.6834 89.169 23.6075 89.48 23.5935C89.8022 23.5739 90.123 23.6497 90.4023 23.8116C90.6816 23.9735 90.9069 24.2142 91.05 24.5035L87.25 26.0835ZM82.63 30.2035H84.5V17.7035H82.63V30.2035ZM79.57 22.9035H79.5C79.2206 22.5854 78.8759 22.3313 78.4893 22.1587C78.1027 21.9862 77.6833 21.8991 77.26 21.9035C76.1672 21.9565 75.1366 22.428 74.382 23.2201C73.6273 24.0123 73.2063 25.0644 73.2063 26.1585C73.2063 27.2526 73.6273 28.3048 74.382 29.097C75.1366 29.8891 76.1672 30.3605 77.26 30.4135C77.6839 30.422 78.1046 30.3368 78.4918 30.164C78.879 29.9911 79.2233 29.7348 79.5 29.4135H79.57V30.0235C79.57 31.6535 78.7 32.5235 77.3 32.5235C76.8323 32.5133 76.3782 32.3642 75.9954 32.0954C75.6126 31.8265 75.3183 31.45 75.15 31.0135L73.53 31.6835C73.8295 32.4358 74.3502 33.0794 75.0234 33.5294C75.6965 33.9793 76.4904 34.2144 77.3 34.2035C79.49 34.2035 81.3 32.9135 81.3 29.7735V22.2035H79.57V22.9035ZM77.42 28.7835C76.7648 28.7427 76.1498 28.4536 75.7003 27.9752C75.2508 27.4968 75.0005 26.865 75.0005 26.2085C75.0005 25.5521 75.2508 24.9203 75.7003 24.4419C76.1498 23.9635 76.7648 23.6744 77.42 23.6335C77.7402 23.6474 78.0544 23.7255 78.3438 23.8632C78.6333 24.0009 78.8921 24.1954 79.1048 24.4352C79.3175 24.675 79.4798 24.9551 79.5821 25.2589C79.6843 25.5627 79.7244 25.8839 79.7 26.2035C79.7273 26.5242 79.6892 26.8471 79.5881 27.1527C79.4871 27.4583 79.3251 27.7402 79.1119 27.9813C78.8988 28.2225 78.639 28.4179 78.3482 28.5558C78.0574 28.6937 77.7416 28.7712 77.42 28.7835ZM101.81 17.7035H97.33V30.2035H99.2V25.4635H101.81C102.343 25.5018 102.878 25.4299 103.382 25.2523C103.886 25.0746 104.348 24.7951 104.739 24.431C105.13 24.067 105.442 23.6263 105.655 23.1364C105.869 22.6465 105.979 22.1179 105.979 21.5835C105.979 21.0492 105.869 20.5206 105.655 20.0307C105.442 19.5408 105.13 19.1001 104.739 18.736C104.348 18.372 103.886 18.0925 103.382 17.9148C102.878 17.7372 102.343 17.6652 101.81 17.7035ZM101.81 23.7035H99.2V19.4435H101.85C102.131 19.4435 102.409 19.4989 102.669 19.6064C102.929 19.714 103.164 19.8716 103.363 20.0703C103.562 20.269 103.72 20.505 103.827 20.7646C103.935 21.0242 103.99 21.3025 103.99 21.5835C103.99 21.8646 103.935 22.1428 103.827 22.4025C103.72 22.6621 103.562 22.898 103.363 23.0967C103.164 23.2955 102.929 23.4531 102.669 23.5606C102.409 23.6682 102.131 23.7235 101.85 23.7235L101.81 23.7035ZM113.35 21.9135C112.669 21.8715 111.991 22.0301 111.399 22.3696C110.807 22.709 110.328 23.2145 110.02 23.8235L111.67 24.5135C111.837 24.2129 112.087 23.967 112.39 23.8056C112.694 23.6441 113.038 23.5739 113.38 23.6035C113.617 23.5758 113.858 23.5956 114.088 23.6619C114.317 23.7281 114.531 23.8394 114.718 23.9892C114.904 24.1391 115.058 24.3246 115.172 24.5348C115.286 24.745 115.356 24.9757 115.38 25.2135V25.3335C114.779 25.0175 114.109 24.8527 113.43 24.8535C111.65 24.8535 109.83 25.8535 109.83 27.6735C109.848 28.0604 109.943 28.4397 110.11 28.7891C110.277 29.1384 110.513 29.4506 110.803 29.7071C111.093 29.9637 111.431 30.1593 111.799 30.2823C112.166 30.4054 112.554 30.4534 112.94 30.4235C113.409 30.4495 113.877 30.3502 114.295 30.1358C114.713 29.9214 115.067 29.5997 115.32 29.2035H115.38V30.2035H117.18V25.3935C117.18 23.2035 115.52 21.9335 113.39 21.9335L113.35 21.9135ZM113.12 28.7635C112.51 28.7635 111.66 28.4535 111.66 27.7035C111.66 26.7035 112.72 26.3635 113.66 26.3635C114.254 26.3489 114.841 26.4939 115.36 26.7835C115.297 27.3266 115.04 27.8285 114.635 28.1962C114.231 28.564 113.707 28.7726 113.16 28.7835L113.12 28.7635ZM123.74 22.2035L121.6 27.6235H121.54L119.32 22.2035H117.32L120.65 29.7835L118.75 33.9935H120.7L125.82 22.2035H123.74ZM106.94 30.2035H108.8V17.7035H106.94V30.2035Z" fill="white"/>
<path d="M20.7199 19.6235L10.0699 30.9235C10.1863 31.3509 10.3993 31.7459 10.6926 32.0778C10.9858 32.4098 11.3515 32.6699 11.7613 32.8381C12.1711 33.0063 12.614 33.078 13.056 33.0477C13.4979 33.0174 13.9269 32.886 14.3099 32.6635L26.3099 25.7435L20.7199 19.6235Z" fill="#EA4335"/>
<path d="M31.49 17.7036L26.31 14.7036L20.49 19.8936L26.33 25.7436L31.48 22.7436C31.9378 22.4984 32.3205 22.1336 32.5873 21.6881C32.8541 21.2425 32.995 20.7329 32.995 20.2136C32.995 19.6943 32.8541 19.1847 32.5873 18.7392C32.3205 18.2936 31.9378 17.9288 31.48 17.6836L31.49 17.7036Z" fill="#FBBC04"/>
<path d="M10.07 9.48389C10.0172 9.72009 9.99366 9.96192 10 10.2039V30.2039C10.0018 30.4538 10.0354 30.7025 10.1 30.9439L21.1 19.9439L10.07 9.48389Z" fill="#4285F4"/>
<path d="M20.8 20.2033L26.31 14.6933L14.31 7.75326C13.8592 7.48526 13.3445 7.34364 12.82 7.34326C12.1874 7.34507 11.5728 7.55443 11.0706 7.9392C10.5685 8.32397 10.2064 8.86289 10.04 9.47326L20.8 20.2033Z" fill="#34A853"/>
</svg>
